<?xml version="1.0" standalone="no"?>
<!DOCTYPE svg PUBLIC "-//W3C//DTD SVG 20010904//EN"
 "http://www.w3.org/TR/2001/REC-SVG-20010904/DTD/svg10.dtd">
<svg version="1.0" xmlns="http://www.w3.org/2000/svg"
 width="128.000000pt" height="128.000000pt" viewBox="0 0 128.000000 128.000000"
 preserveAspectRatio="xMidYMid meet">

<g transform="translate(0.000000,128.000000) scale(0.100000,-0.100000)"
 stroke="none">
<path d="M1 1153 c0 -81 3 -120 9 -107 4 12 21 31 36 43 27 21 30 21 594 21
564 0 567 0 594 -21 15 -12 32 -31 36 -43 6 -13 9 26 9 107 l1 127 -640 0
-640 0 1 -127z"/>
<path d="M760 915 c-6 -8 -9 -23 -5 -35 6 -18 13 -21 58 -18 46 3 52 6 55 27
2 13 -2 28 -10 32 -21 14 -85 10 -98 -6z"/>
<path d="M930 909 c-17 -30 4 -49 55 -49 51 0 72 19 55 49 -8 16 -20 21 -55
21 -35 0 -47 -5 -55 -21z"/>
<path d="M219 794 c-8 -9 -26 -69 -40 -133 l-25 -116 -42 -3 c-37 -3 -47 1
-77 31 l-35 35 0 -304 0 -304 640 0 640 0 -1 313 c0 183 -4 303 -9 291 -15
-39 -60 -65 -104 -62 l-40 3 -25 116 c-14 64 -32 124 -40 133 -12 14 -55 16
-421 16 -366 0 -409 -2 -421 -16z m796 -86 c26 -113 35 -154 35 -160 0 -5
-184 -8 -410 -8 -226 0 -410 3 -410 8 0 6 9 47 35 160 l5 22 370 0 370 0 5
-22z m-530 -276 c-9 -50 -9 -91 0 -125 8 -28 -9 -99 -28 -124 -13 -18 -42 -16
-57 2 -10 12 -9 23 4 58 15 39 15 47 1 80 -15 36 -11 92 6 103 5 3 9 14 9 24
0 26 29 41 53 28 15 -8 18 -17 12 -46z m186 48 c22 -12 24 -37 7 -75 -8 -19
-8 -37 1 -77 11 -47 11 -58 -7 -103 -16 -40 -25 -51 -45 -53 -34 -4 -44 30
-25 78 12 29 12 40 -1 76 -13 37 -13 48 -2 81 14 41 38 83 47 83 3 0 14 -5 25
-10z m203 -9 c15 -17 16 -22 2 -62 -14 -39 -14 -48 -1 -84 14 -37 14 -44 -4
-95 -17 -49 -23 -55 -48 -55 -27 0 -28 2 -25 40 4 67 4 98 -3 137 -10 53 25
137 56 138 3 0 14 -8 23 -19z"/>
</g>
</svg>
